<?xml version="1.0" encoding="utf-8" ?>
<svg xmlns="http://www.w3.org/2000/svg" xmlns:xlink="http://www.w3.org/1999/xlink" width="500" height="365">
	<path fill="#FEFEFE" fill-opacity="0.97647059" d="M441.977 188.03C443.09 189.293 442.632 199.802 442.475 202.051C442.431 202.696 442.351 202.996 441.96 203.521C442.249 202.437 442.206 189.381 441.977 188.03Z"/>
	<path fill="#FEFEFE" d="M100.535 294.406C101.359 294.375 101.828 294.479 102.56 294.868C103.868 295.562 105.032 296.665 106.049 297.727C107.267 299 114.972 308.375 115.305 309.494C112.067 307.344 101.735 297.632 100.535 294.406Z"/>
	<path fill="#FEFEFE" fill-opacity="0.97647059" d="M440.368 237.873L440.716 238.278C440.567 240.384 440.031 242.337 439.399 244.34C438.391 247.537 434.743 258.713 431.83 260.227C431.084 255.888 434.474 251.447 436.126 247.663C437.567 244.361 438.679 241.081 440.368 237.873Z"/>
	<path fill="#FEFEFE" fill-opacity="0.98823529" d="M230.977 7.78854C231.627 7.77074 232.001 7.7824 232.58 8.09199L232.483 8.5317C227.673 12.5165 216.582 12.4779 210.241 13.2993C209.777 13.3954 209.495 13.4201 209.031 13.3168L209.151 12.9862C213.515 10.3097 225.441 9.16606 230.977 7.78854Z"/>
	<path fill="#FEFEFE" d="M73.9302 250.791C74.0087 250.802 74.0878 250.808 74.1657 250.822C76.8541 251.312 80.0199 255.776 81.5838 257.932C84.7936 262.357 86.7893 269.318 89.5301 274.333C90.7638 276.59 95.8983 283.429 95.6326 285.396C95.6238 285.46 95.6116 285.525 95.6011 285.589C95.081 285.392 94.5864 285.143 94.1064 284.862C92.293 283.8 90.8018 282.235 89.4992 280.605C85.6281 275.763 74.6167 257.855 73.5256 252.238C73.3869 251.524 73.5359 251.333 73.9302 250.791Z"/>
	<path fill="#FEFEFE" d="M251.81 6.32269C259.495 6.25804 267.028 6.61429 274.687 7.14275C277.612 7.34463 280.722 7.30415 283.581 7.95288C284.644 8.19404 285.561 8.73539 286.49 9.28668C283.686 10.6539 280.354 11.287 277.344 12.0998C277.216 12.1141 277.088 12.1282 276.96 12.1379L276.741 12.1533C272.234 12.4992 265.128 10.7963 260.314 10.3643C255.458 9.92865 250.727 10.213 245.892 10.016C245.029 9.98085 243.554 10.034 242.943 9.3721L243.228 8.87494C245.497 7.30427 249.116 6.98186 251.81 6.32269Z"/>
	<path fill="#FEFEFE" d="M425.665 268.373L426.636 268.348L426.857 268.675C426.983 271.437 425.137 275.013 423.793 277.349C421.559 281.232 407.282 301.211 403.848 302.128L403.493 302.142L403.231 301.772C403.627 298.922 405.127 294.711 406.618 292.222C407.896 290.091 409.746 288.442 411.37 286.585C413.51 284.14 415.605 281.614 417.625 279.068C420.33 275.657 422.435 271.254 425.665 268.373Z"/>
	<path fill="#FEFEFE" d="M396.232 301.623C396.808 301.569 397.004 301.458 397.493 301.79C397.691 302.458 397.677 302.804 397.435 303.478C396.347 306.507 393.258 311.974 391.178 314.375C387.074 319.114 372.053 330.054 366.287 332.578L365.972 332.779L365.569 332.622C365.403 331.067 367.755 328.98 368.608 327.652C370.416 324.836 371.287 320.862 373.61 318.46C376.076 315.91 379.861 314.199 382.8 312.197C384.103 311.309 395.764 302.459 396.232 301.623Z"/>
	<path fill="#FEFEFE" d="M62.0748 205.117C62.1423 205.148 62.2118 205.177 62.2773 205.212C62.643 205.411 62.9869 205.645 63.2368 205.985C64.3073 207.437 65.1089 209.184 66.1082 210.706C68.0644 213.686 71.3319 216.803 72.3986 220.186C73.4587 223.549 73.8057 229.684 74.4705 233.526C75.0372 236.8 76.1442 240.079 77.0012 243.293C77.2642 244.28 77.5878 245.195 77.0878 246.164Q76.8975 246.057 76.7104 245.944C75.0197 244.914 73.7554 243.528 72.4783 242.038C68.497 237.396 66.5069 232.846 65.1091 226.947C64.2527 223.332 61.4144 209.406 61.6078 206.254C61.6331 205.841 61.8631 205.461 62.0748 205.117Z"/>
	<path fill="#FEFEFE" d="M296.336 12.5757C299.345 12.4251 302.536 12.2939 305.516 12.725C312.493 13.7341 319.67 16.7355 326.242 19.2267C328.638 20.1352 331.18 20.8861 333.459 22.0552C334.091 22.3795 334.699 22.6838 334.924 23.38C334.002 24.2993 329.599 23.9174 328.188 23.9387C324.892 23.9707 320.988 24.7926 317.789 24.3118C312.824 23.5655 307.813 20.7755 303.016 19.1984C299.325 17.9851 295.34 17.2641 291.746 15.8373C290.98 15.5332 290.297 15.148 289.803 14.4734L289.965 14.1552C291.744 13.1382 294.317 12.9203 296.336 12.5757Z"/>
	<path fill="#FEFEFE" d="M93.0339 263.308C94.7435 263.566 96.4026 264.191 98.1338 264.464C101.022 264.921 104.098 264.915 106.919 265.66C107.63 266.441 108.172 267.351 108.666 268.281C109.937 270.678 110.951 273.231 112.151 275.668C113.341 278.087 117.824 285.596 118.124 287.54C117.791 288.239 117.571 288.334 116.948 288.762C114.266 289.489 111.679 289.751 108.918 289.463C107.863 288.8 107.07 288.132 106.295 287.15C103.869 284.077 93.5573 267.565 92.7267 264.526C92.5672 263.943 92.7611 263.788 93.0339 263.308Z"/>
	<path fill="#FEFEFE" d="M235.066 16.3587C241.134 16.1277 258.891 15.7735 264.18 17.4048C264.726 17.5732 264.75 17.6442 265.007 18.119C264.7 19.1088 261.725 21.5354 260.791 22.5933C259.52 24.0315 258.377 25.5382 257.266 27.1017C256.923 27.4597 256.558 27.8598 256.131 28.1184C255.627 28.4236 255.068 28.457 254.495 28.4382C252.666 28.3783 250.77 27.9251 248.943 27.7046C245.445 27.2824 241.89 26.9454 238.383 26.6121C235.86 26.3724 232.906 26.6843 230.461 26.0879C229.857 25.9406 229.801 25.9559 229.479 25.4289C229.411 23.5187 230.464 19.9184 231.585 18.3346C232.441 17.1241 233.646 16.6028 235.066 16.3587Z"/>
	<path fill="#FEFEFE" d="M417.631 248.374C417.987 248.316 418.396 248.226 418.756 248.243C419.553 248.28 420.359 249.17 420.879 249.723C422.132 251.057 424.346 253.859 424.3 255.726C424.326 255.986 424.333 256.22 424.262 256.475C423.523 259.128 410.161 278.664 407.818 279.991C407.692 280.257 407.492 280.396 407.277 280.592L406.749 280.562C405.061 279.054 402.25 270.474 402.187 268.162C402.164 267.331 402.492 266.724 402.956 266.064C404.791 263.454 407.247 261.308 409.277 258.857C412.136 255.405 414.655 251.727 417.631 248.374Z"/>
	<path fill="#FEFEFE" d="M81.3715 226.364C81.8232 226.377 82.3034 226.393 82.7415 226.509C85.0855 227.133 87.4977 228.619 89.881 229.391C92.5342 230.251 96.238 230.729 98.4478 232.442C98.9217 233.467 99.2826 234.497 99.5569 235.594C100.401 238.968 100.799 242.508 101.52 245.921C102.014 248.259 102.876 250.604 103.235 252.955C103.296 253.356 103.258 253.754 103.172 254.148C98.8082 255.404 93.2424 254.194 88.9019 253.25C84.8358 249.301 82.0328 232.239 81.3715 226.364Z"/>
	<path fill="#FEFEFE" d="M218.469 17.8228C218.863 17.7794 219.259 17.8026 219.656 17.8093L220.004 18.2033C220.07 20.6112 217.405 24.1948 216.193 26.2951C212.32 27.348 208.227 27.3198 204.25 27.6639C201.926 27.8651 199.604 28.2969 197.315 28.742C180.885 31.9368 166.199 37.5286 152.36 46.9943C148.698 49.4985 145.448 52.4865 141.806 54.9996L141.135 55.5182C141.045 55.0818 141.261 54.7631 141.504 54.4065C143.36 51.6819 146.267 49.1775 148.759 47.0372C160.302 37.121 170.84 31.8381 184.736 26.1595C187.319 25.1042 189.851 23.9062 192.524 23.0918C201.105 20.4773 209.649 19.2237 218.469 17.8228Z"/>
	<path fill="#FEFEFE" d="M391.872 276.874C392.169 276.865 392.469 276.88 392.759 276.953C393.858 277.231 394.708 278.486 395.233 279.432C396.445 281.616 399.112 286.98 398.272 289.399C397.222 292.428 381.529 304.812 378.564 306.267C378.097 306.837 377.384 307.338 376.668 307.504C376.267 307.354 376.121 307.389 375.885 307.003C375.481 306.341 375.405 305.403 375.361 304.642C375.241 302.552 375.268 300.378 374.957 298.31C374.662 296.345 374.01 294.46 373.871 292.462C373.818 291.702 373.888 291.031 374.099 290.298C374.353 289.412 376.913 287.997 377.697 287.467C380.58 285.52 383.489 283.37 386.218 281.215C388.111 279.721 389.751 278.059 391.872 276.874Z"/>
	<path fill="#FEFEFE" d="M116.495 298.236C118.354 298.517 120.043 298.302 121.895 298.248C123.144 298.211 124.558 298.278 125.661 298.926C128.019 300.31 134.723 309.339 137.66 312.088C148.424 322.167 160.813 331.97 174.839 336.995C177.64 337.998 180.48 339.04 183.355 339.807C185.629 340.414 187.946 340.683 190.15 341.549C191.196 341.96 192.583 342.148 193.405 342.925L193.42 343.522C184.449 343.113 172.024 339.128 163.746 335.765C147.611 329.211 133.723 318.589 121.804 306.054C120.226 304.394 116.96 301.593 116.214 299.472C116.029 298.946 116.27 298.696 116.495 298.236Z"/>
	<path fill="#FEFEFE" d="M278.026 19.2582C281.82 19.3165 302.013 24.8522 304.68 27.042C305.124 27.4066 305.244 27.6168 305.299 28.1771C303.991 30.4422 299.894 32.1 297.74 33.6495C296.452 34.5763 295.296 35.6257 294.15 36.7201C293.421 37.4999 292.581 38.1592 291.762 38.8411C288.042 37.8768 284.546 36.3487 280.899 35.1701C277.031 33.9203 272.919 33.0293 269.195 31.4212C268.958 30.7039 268.92 30.4005 269.15 29.641C270.158 26.3129 274.994 20.8121 278.026 19.2582Z"/>
	<path fill="#FEFEFE" d="M424.084 238.556C424.935 237.62 427.036 232.054 427.74 230.499C429.054 227.597 430.586 224.759 431.755 221.798C437.053 208.386 439.434 193.372 437.8 179.021C437.452 175.965 436.953 172.884 436.371 169.864C435.912 167.484 433.807 161.32 434.243 159.247L434.771 159.112C435.861 159.505 436.551 160.92 437.064 161.898C439.016 165.62 443.331 184.101 442.036 187.879C442.018 187.93 441.997 187.98 441.977 188.03C442.206 189.381 442.249 202.437 441.96 203.521C442.096 203.827 442.195 204.044 442.233 204.38C442.48 206.592 441.923 209.384 441.554 211.595C439.904 221.475 437.001 230.349 433.101 239.536C432.353 241.297 431.62 243.869 430.309 245.264C430.014 245.577 429.851 245.718 429.413 245.708C426.265 245.637 425.97 240.538 424.236 238.708C424.187 238.656 424.135 238.607 424.084 238.556Z"/>
	<path fill="#FEFEFE" d="M69.1385 148.102C69.463 148.225 69.653 148.337 69.8888 148.604C70.2585 149.024 70.4966 149.741 70.6506 150.275C71.2275 152.279 71.4707 154.391 71.9867 156.415C72.7956 159.588 74.6762 163.468 74.7379 166.692C74.8069 170.298 73.4745 173.92 73.1147 177.505C72.6001 182.631 71.944 187.789 71.6535 192.929C71.4178 197.1 71.5264 201.284 71.3239 205.457C70.3934 204.856 69.5522 204.203 68.7002 203.497C65.7533 198.868 62.0316 193.599 61.4152 188.02C60.4026 178.856 63.8751 163.771 66.5309 154.823C67.1899 152.602 67.6841 149.939 69.1385 148.102Z"/>
	<path fill="#FEFEFE" d="M360.355 326.034C360.58 326.087 360.709 326.239 360.884 326.385C360.766 328.401 357.024 333.34 355.652 335.058C353.693 337.51 351.356 340.148 348.751 341.906C346.179 343.64 343.16 344.703 340.3 345.861C329.638 350.181 319.249 352.985 307.817 354.19C307.581 354.151 307.364 354.003 307.153 353.895L307.146 353.316C308.677 350.878 312.153 349.37 314.334 347.501C316.697 345.476 318.992 342.357 321.702 340.903C323.31 340.04 325.433 339.661 327.197 339.18C335.138 337.014 343.062 333.757 350.603 330.478C354.211 328.909 356.366 327.2 360.355 326.034Z"/>
	<path fill="#FEFEFE" d="M331.468 29.5657Q334.156 29.3832 336.85 29.3849C341.295 29.3524 346.418 29.5278 350.653 30.9722C358.948 33.8017 376.196 48.2106 382.662 54.6055C383.467 55.4016 385.134 56.8534 385.139 58.0534L384.533 58.546C382.365 58.2734 380.256 57.2498 378.134 56.6892C375.055 55.8759 371.863 55.3998 368.815 54.4901C367.259 54.0258 365.834 53.3944 364.457 52.5314C361.857 50.9008 359.438 48.8823 356.918 47.1188Q350.044 42.3808 342.939 37.9965C340.4 36.4338 333.107 32.8523 331.533 30.9482C331.457 30.8565 331.359 30.7045 331.309 30.5922C331.148 30.2339 331.352 29.9238 331.468 29.5657Z"/>
	<path fill="#FEFEFE" d="M361.09 297.546C361.218 297.611 361.346 297.676 361.469 297.749C363.107 298.721 364.073 302.508 364.568 304.379C365.249 306.951 366.465 312.05 364.858 314.477C363.463 316.584 341.934 324.705 338.49 325.878C336.89 326.423 335.22 326.778 333.582 327.19C332.842 327.572 331.825 327.929 331.002 327.759C330.562 327.047 330.626 326.574 330.723 325.764C331.072 322.844 331.683 320.023 331.8 317.07C331.879 315.092 331.341 312.699 331.655 310.83C331.765 310.175 332.118 309.759 332.703 309.466C334.669 308.482 337.103 308.204 339.191 307.481C344.231 305.735 356.717 300.68 360.797 297.759L361.09 297.546Z"/>
	<path fill="#FEFEFE" d="M82.961 179.331C85.0697 179.699 90.4602 184.816 92.9366 186.158C94.749 187.139 97.4372 187.227 99.002 188.45C99.2849 188.671 99.7063 189.014 99.7295 189.389C99.979 193.435 98.8243 197.901 98.5485 201.976C98.2004 207.119 98.5166 212.42 97.9763 217.52C97.898 218.26 97.7333 218.764 97.2321 219.326C95.4843 219.522 93.7147 219.14 92.0117 218.774C88.9505 218.117 82.0066 216.546 80.4124 213.756C78.3181 210.09 81.8803 184.205 82.961 179.331Z"/>
	<path fill="#FEFEFE" d="M316.607 33.2808C317.28 33.2072 317.923 33.1483 318.574 33.3781C323.636 35.1668 346.278 49.0362 348.237 53.3465C347.488 54.774 341.81 55.7094 340.079 56.3941C338.117 57.1699 336.27 58.1034 334.649 59.4654L334.394 59.6815C333.627 60.4666 332.607 61.1356 331.737 61.8159C327.047 59.3914 322.848 55.4821 318.387 52.5989C313.954 49.7345 308.658 47.6663 304.608 44.339C306.236 38.9428 312.072 35.9066 316.607 33.2808Z"/>
	<path fill="#FEFEFE" d="M167.358 118.326C175.007 117.842 181.643 119.016 187.816 123.917Q188.258 124.264 188.682 124.633Q189.106 125.001 189.512 125.39Q189.917 125.779 190.303 126.188Q190.689 126.597 191.054 127.024Q191.419 127.451 191.763 127.895Q192.107 128.34 192.428 128.801Q192.75 129.262 193.048 129.738Q193.346 130.215 193.621 130.705Q193.895 131.195 194.145 131.699Q194.395 132.202 194.62 132.717Q194.844 133.232 195.043 133.758Q195.242 134.283 195.415 134.818Q195.588 135.353 195.735 135.895Q195.881 136.438 196 136.987Q196.12 137.536 196.212 138.09Q196.304 138.645 196.369 139.203C197.074 145.495 195.377 150.523 191.425 155.448C186.403 161.705 179.241 164.504 171.412 165.08C168.882 165.266 166.312 165.129 163.796 165.427C160.979 165.76 159.426 167.032 157.71 169.213C154.861 172.833 152.222 177.216 150.068 181.287C147.105 186.888 139.407 203.783 141.351 209.62C143.048 214.714 147.574 217.168 148.26 223.478C148.931 229.653 145.361 233.053 141.88 237.507C140.403 239.395 139.929 241.101 140.226 243.487C140.572 246.263 141.381 248.966 142.136 251.652C145.378 263.183 150.573 273.632 157.441 283.423C159.203 285.935 161.284 289.26 164.031 290.755C168.663 293.277 173.546 290.56 178.863 294.795C183.287 298.32 184.093 303.347 184.648 308.625Q184.823 308.829 185.003 309.028C191.547 316.323 220.342 327.786 230.066 327.631C234.258 327.564 237.411 323.961 241.802 324.251C245.384 324.488 247.814 327.018 250.025 329.573C260.06 332.311 280.481 328.364 290.559 325.511C293.362 324.718 296.025 323.552 298.782 322.618C299.372 322.447 299.762 322.316 300.366 322.477L300.247 322.865C295.121 326.924 274.561 332.711 267.801 333.847C262.812 334.685 257.223 334.758 252.416 336.163C248.683 337.253 246.036 340.65 242.193 341.134Q241.686 341.199 241.174 341.202C235.904 341.235 233.53 336.912 229.046 335.271C225.71 334.051 221.988 333.774 218.524 333C213.198 331.809 208.006 330.201 202.828 328.492C199.255 327.314 195.628 326.108 192.219 324.51C188.158 322.606 184.119 320.167 179.868 318.745C173.28 316.543 167.346 320.781 160.87 315.735L160.667 315.574C153.35 309.657 156.896 304.686 153.776 298.355C152.055 294.86 148.702 291.96 146.316 288.861C142.028 283.294 138.316 277.604 135.034 271.385C132.005 265.644 129.267 259.625 127.357 253.41C126.202 249.651 125.684 244.643 123.886 241.257C120.866 235.571 114.561 234.466 113.785 226.637C113.05 219.225 115.97 217.046 120.148 211.802C124.231 206.678 125.031 197.407 126.809 191.119C128.183 186.261 129.725 181.739 131.709 177.091C133.649 172.545 135.807 168.181 138.362 163.944C140.759 159.969 144.687 156.045 145.814 151.477C146.381 149.176 145.935 146.942 145.671 144.64C144.91 138 146.66 131.917 150.875 126.7C154.8 121.842 161.217 118.942 167.358 118.326Z"/>
	<path fill="#FEFEFE" d="M183.796 44.3465C193.363 43.4011 193.885 47.9385 201.006 48.4585C205.319 48.7734 209.422 47.6487 213.684 47.3449C220.838 46.8351 228.054 46.9655 235.212 47.3352C243.006 47.7377 251.068 49.0796 258.653 50.8722C262.564 51.7963 266.856 53.7472 270.821 53.8899C274.207 54.0118 277.348 52.3482 280.724 52.1378C287.645 51.7065 293.963 54.2481 297.335 60.5099C299.197 63.9663 300.377 67.4933 303.049 70.4868C305.875 73.6517 310.78 77.2883 314.106 80.1475C318.367 83.8121 322.527 88.1577 326.143 92.4653Q331.703 99.1616 336.293 106.556C338.335 109.826 340.058 113.945 342.748 116.724C344.868 118.913 347.926 119.244 350.599 120.415C353.15 121.532 355.884 123.362 357.945 125.219C362.405 129.238 365.097 135.337 365.391 141.304C365.689 147.351 363.056 153.108 358.991 157.483C354.798 161.998 348.023 165.283 341.833 165.474C334.623 165.696 326.74 163.053 321.487 158.023C314.158 151.006 312.508 140.51 317.015 131.474C318.617 128.262 322.051 125.179 321.833 121.334C321.485 115.182 310.933 101.703 306.9 97.0977C304.052 93.8467 300.832 90.6489 297.618 87.7644C292.961 83.5853 290.901 83.1361 284.812 83.4753C281.752 83.6168 278.831 83.7295 275.902 82.6495C271.655 81.0839 267.951 77.7911 266.085 73.6413C265.442 72.2123 265.055 70.6807 264.374 69.2656C263.146 66.717 260.379 65.543 257.838 64.6909C243.552 59.9002 227.859 58.7802 212.88 59.311C209.972 59.414 206.302 59.2056 203.623 60.408C199.6 62.2131 198.773 67.0021 193.735 69.4574C187.094 72.6941 181.603 69.7179 175.33 67.5082C172.907 68.2618 170.693 69.2323 168.41 70.3266C160.055 74.3313 138.786 86.6541 134.783 94.6127C133.505 97.1531 134.245 100.356 133.252 103.059C131.21 108.616 127.071 107.053 123.201 108.964C117.408 111.824 109.754 132.365 107.762 138.856C106.524 142.89 105.782 147.045 104.544 151.086C103.236 139.362 107.742 126.996 112.062 116.282C113.267 113.293 114.996 110.466 115.78 107.328C116.85 103.047 114.303 98.3588 117.469 94.5952C120.051 91.5262 125.333 91.2452 128.619 88.934C131.952 86.5897 134.768 83.0495 137.706 80.207C141.107 76.9164 144.836 73.9517 148.629 71.1251Q154.366 66.9214 160.618 63.5297C163.322 62.0288 166.217 60.9355 168.593 58.9173C171.56 56.3981 172.564 53.7105 174.633 50.5738C176.803 47.2831 179.954 45.1166 183.796 44.3465Z"/>
	<path fill="#FEFEFE" d="M364.566 84.0199C369.143 84.7747 381.115 95.1077 384.799 98.5966C387.655 101.302 390.447 104.242 393.015 107.223C395.964 110.645 398.386 114.943 401.714 117.971C404.147 120.185 407.775 119.781 410.084 122.405C413.735 126.555 411.331 129.893 411.054 134.451C410.965 135.929 411.29 137.41 411.668 138.83C412.335 141.334 413.256 143.78 414.003 146.263C415.817 152.297 417.333 158.57 417.864 164.861Q418.269 170.022 418.25 175.198C418.247 178.294 417.861 181.842 418.509 184.861C419.747 190.627 425.357 192.215 424.784 199.577C423.943 210.371 416.003 208.887 411.437 214.486C408.858 217.647 407.496 222.228 405.54 225.829C402.166 232.041 398.019 238.015 393.612 243.538C388.9 249.443 383.631 254.622 377.97 259.604C375.645 261.65 372.379 263.405 370.507 265.839C367.124 270.237 368.708 275.242 363.447 279.722Q363.032 280.075 362.595 280.401C357.162 284.459 352.642 284.539 346.237 283.403C344.209 283.044 342.252 282.672 340.183 282.918C334.779 283.559 329.682 285.605 324.462 287.016C319.501 288.357 314.053 289.233 308.957 289.902C301.76 290.848 293.962 291.171 286.701 290.934C282.88 290.81 278.887 290.13 275.083 290.379C271.71 290.6 269.54 293.046 266.851 294.743C262.034 297.783 255.652 298.968 250.057 298.466C241.583 297.705 236.062 293.874 230.752 287.541C229.354 285.394 228.209 283.114 227.615 280.61C226.243 274.839 227.315 268.176 230.479 263.155Q230.804 262.65 231.153 262.161Q231.503 261.672 231.876 261.201Q232.249 260.73 232.644 260.278Q233.039 259.826 233.456 259.393Q233.873 258.961 234.311 258.549Q234.749 258.138 235.206 257.748Q235.663 257.358 236.139 256.991Q236.615 256.625 237.108 256.281Q237.601 255.938 238.11 255.62Q238.62 255.301 239.144 255.007Q239.668 254.714 240.206 254.447Q240.744 254.179 241.294 253.938Q241.845 253.697 242.406 253.484Q242.968 253.27 243.539 253.084Q244.11 252.898 244.69 252.74Q245.269 252.582 245.856 252.453C256.061 250.252 267.858 253.587 274.051 262.387C276.18 265.412 277.105 269.328 280.471 271.33C282.566 272.576 285.705 272.637 288.082 272.849Q292.78 273.264 297.497 273.286Q302.213 273.307 306.915 272.935Q311.617 272.564 316.272 271.801Q320.926 271.038 325.501 269.89C331.875 268.268 333.017 265.745 336.17 260.508C337.912 257.615 340.078 255.534 343.153 254.129C351.684 250.229 355.589 254.657 362.237 252.91C365.656 252.012 368.098 249.527 370.721 247.299Q374.538 244.102 378.062 240.584Q381.586 237.066 384.79 233.255Q387.994 229.443 390.853 225.367Q393.713 221.29 396.206 216.98C397.35 214.997 399.402 211.31 398.768 208.967C399.177 207.564 396.399 202.613 395.964 200.683C395.513 198.684 395.762 197.018 396.3 195.064C398.425 187.338 403.792 188.645 406.579 184.123C410.271 178.133 407.49 153.543 405.802 146.379C405.262 144.084 404.506 141.691 403.32 139.642C401.16 135.908 395.978 134.899 394.503 130.735C393.219 127.112 395.87 124.098 395.119 120.643C394.477 117.689 392.302 114.679 390.615 112.202C386.975 106.854 382.77 101.637 378.264 96.9942C376.193 94.8606 374.105 92.6297 371.838 90.708C370.098 89.2328 368.202 87.9641 366.487 86.4494C366.024 86.0402 365.029 85.2601 364.741 84.7275C364.625 84.5138 364.624 84.2558 364.566 84.0199Z"/>
</svg>
