<svg fill="#FFFFFF" xmlns="http://www.w3.org/2000/svg"  viewBox="0 0 50 50" width="100px" height="100px"><path d="M 7 1 L 7 47 L 39.951172 47 L 41.693359 49.003906 L 50 39 L 45 39 L 45 30 L 43 30 L 43 14.564453 L 29.392578 1 L 7 1 z M 29 3 L 41 15 L 29 15 L 29 3 z M 17.316406 24.492188 C 18.523406 24.492188 19.508453 24.713375 20.189453 25.359375 C 20.801453 25.937375 21.107422 26.821641 21.107422 27.806641 C 21.107422 28.962641 20.784813 29.743469 20.257812 30.355469 C 19.577813 31.154469 18.472906 31.546875 17.503906 31.546875 C 17.316906 31.546875 17.162187 31.545344 16.992188 31.527344 L 16.992188 36 L 15.191406 36 L 15.191406 24.712891 C 15.769406 24.576891 16.517406 24.492188 17.316406 24.492188 z M 24.558594 24.492188 C 25.884594 24.492188 26.837578 24.814359 27.517578 25.443359 C 28.453578 26.276359 29.03125 27.771406 29.03125 30.066406 C 29.03125 32.531406 28.419734 34.078734 27.552734 34.927734 C 26.787734 35.709734 25.6655 36.083984 24.1875 36.083984 C 23.5585 36.083984 22.929484 36.032844 22.521484 35.964844 L 22.521484 24.712891 C 23.048362 24.577135 23.777396 24.492188 24.558594 24.492188 z M 30.507812 24.542969 L 35.216797 24.542969 L 35.216797 26.123047 L 32.326172 26.123047 L 32.326172 29.541016 L 35.029297 29.541016 L 35.029297 31.054688 L 32.326172 31.054688 L 32.326172 36 L 30.507812 36 L 30.507812 24.542969 z M 24.847656 25.953125 C 24.660656 25.953125 24.473313 25.971859 24.320312 26.005859 L 24.320312 34.554688 C 24.473312 34.588687 24.642719 34.589844 24.761719 34.589844 C 26.018719 34.589844 27.158203 33.534781 27.158203 30.050781 C 27.158203 27.449781 26.428656 25.953125 24.847656 25.953125 z M 17.621094 25.970703 C 17.366094 25.970703 17.145188 26.003688 16.992188 26.054688 L 16.992188 30.033203 C 17.128187 30.067203 17.248547 30.066406 17.435547 30.066406 C 18.625547 30.066406 19.287109 29.251406 19.287109 27.941406 C 19.287109 26.871406 18.845094 25.970703 17.621094 25.970703 z M 40 32 L 43 32 L 43 41 L 46 41 L 41.693359 46 L 37 41 L 40 41 L 40 32 z M 33.117188 38.998047 L 33.134766 39 L 33.119141 39 L 33.117188 38.998047 z"/></svg>