<?xml version="1.0" encoding="UTF-8"?>
<svg id="Layer_1" xmlns="http://www.w3.org/2000/svg" xmlns:xlink="http://www.w3.org/1999/xlink" version="1.1" viewBox="0 0 418.6 145.04">
  <!-- Generator: Adobe Illustrator 29.1.0, SVG Export Plug-In . SVG Version: 2.1.0 Build 142)  -->
  <defs>
    <style>
      .st0 {
        fill: none;
      }

      .st1 {
        fill: #184c85;
      }

      .st2 {
        fill: #fff;
      }

      .st3 {
        fill: #d5b57a;
      }

      .st4 {
        fill: #1a4d86;
      }

      .st5 {
        fill: #ceac67;
      }

      .st6 {
        display: none;
      }

      .st7 {
        clip-path: url(#clippath);
      }
    </style>
    <clipPath id="clippath">
      <rect class="st0" x="7" y="8.18" width="404.28" height="125.41"/>
    </clipPath>
  </defs>
  <rect class="st4" width="418.6" height="145.04"/>
  <g class="st7">
    <g>
      <path class="st2" d="M54.84,82.4l2.3-5.1c2.47,1.8,6.15,3.05,9.66,3.05,4.01,0,5.64-1.34,5.64-3.14,0-5.48-17.02-1.71-17.02-12.58,0-4.98,4.01-9.11,12.33-9.11,3.68,0,7.44.88,10.16,2.59l-2.09,5.14c-2.72-1.55-5.52-2.3-8.11-2.3-4.01,0-5.56,1.51-5.56,3.34,0,5.39,17.02,1.67,17.02,12.42,0,4.89-4.06,9.07-12.42,9.07-4.64,0-9.32-1.38-11.92-3.39Z"/>
      <path class="st2" d="M97.23,74.92v10.37h-6.77v-10.45l-11.33-18.81h7.19l7.82,13,7.82-13h6.65l-11.37,18.9Z"/>
      <path class="st2" d="M137.79,85.29l-.04-17.56-8.61,14.47h-3.05l-8.57-14.09v17.18h-6.35v-29.27h5.6l10.95,18.19,10.79-18.19h5.56l.08,29.27h-6.35Z"/>
      <path class="st2" d="M177.93,77.3c0,5.06-4.01,7.98-11.71,7.98h-15.13v-29.27h14.3c7.32,0,11.08,3.05,11.08,7.61,0,2.93-1.5,5.18-3.89,6.44,3.26,1.05,5.35,3.55,5.35,7.23ZM157.81,61.12v6.9h6.73c3.3,0,5.1-1.17,5.1-3.47s-1.8-3.43-5.1-3.43h-6.73ZM171.11,76.59c0-2.47-1.88-3.64-5.39-3.64h-7.9v7.23h7.9c3.51,0,5.39-1.09,5.39-3.6Z"/>
      <path class="st2" d="M183.07,56.02h6.77v29.27h-6.77v-29.27Z"/>
    </g>
    <g>
      <path class="st2" d="M258.2,61.54h-9.37v-5.52h25.5v5.52h-9.37v23.75h-6.77v-23.75Z"/>
      <path class="st2" d="M300.64,79.85v5.44h-22.66v-29.27h22.12v5.44h-15.39v6.35h13.59v5.27h-13.59v6.77h15.93Z"/>
      <path class="st2" d="M304.11,70.65c0-8.82,6.77-15.13,15.89-15.13,5.06,0,9.28,1.84,12.04,5.18l-4.35,4.01c-1.96-2.26-4.43-3.43-7.36-3.43-5.48,0-9.37,3.85-9.37,9.37s3.89,9.37,9.37,9.37c2.93,0,5.39-1.17,7.36-3.47l4.35,4.01c-2.76,3.39-6.98,5.23-12.08,5.23-9.07,0-15.85-6.31-15.85-15.13Z"/>
      <path class="st2" d="M363.44,56.02v29.27h-6.77v-12h-13.29v12h-6.77v-29.27h6.77v11.54h13.29v-11.54h6.77Z"/>
    </g>
    <g>
      <path class="st2" d="M210.09,91.35c1.16.54,2.38.78,3.57,1.21-.91.04-3.45-.61-4.2-1.09.13,0,.28.03.41,0,.14-.02.14-.03.22-.13Z"/>
      <text/>
      <path class="st2" d="M195.44,73.47c.27.3.44.75.62,1.11l-.2-.09c-.1.05-.12.09-.15.19-.01.03-.02.06-.03.09l-.1-.05c-.08-.42-.13-.82-.15-1.25Z"/>
      <path class="st2" d="M222.14,89.67c.67-.15,1.35-.29,2.01-.5.35-.11.93-.46,1.28-.44,0,.07,0,.07-.06.12-.46.41-2.26.94-2.95,1.17.02-.06.03-.13.05-.19-.1.01-.14.02-.23-.03.04-.02.08-.04.13-.05l.05-.02c-.08-.04-.17-.05-.26-.07Z"/>
      <path class="st2" d="M216.5,45.61c.11-.01.27-.03.36.03,0,.01-.01.03-.02.04-.28.41-1.86.52-2.35.6-.31.05-.62.13-.93.19-.13.05-.25.09-.39.04.27-.33,2.8-.82,3.33-.91Z"/>
      <path class="st2" d="M196.92,79.88c.35.04.5.31.71.56.66.8.93,1.93,1.4,2.86.19.37.48.7.66,1.08.05.12.05.15.04.28-.15-.04-.27-.16-.38-.26-.61-.55-2.38-3.72-2.42-4.51Z"/>
      <path class="st2" d="M241.22,81.21s.03.02.05.04c.04.05.05.12.05.18-.05.93-2.18,3.92-2.91,4.62-.04-.03-.07-.04-.07-.09-.01-.15.09-.36.13-.5.45-1.38,1.01-1.62,1.79-2.74.34-.49.6-1.05.98-1.5Z"/>
      <path class="st2" d="M219.56,45.4c.68-.02,3.43.05,4.01.31.04.02.04.04.05.08,0,0-.01.01-.02.02-.17.15-1.24.35-1.5.37-.71-.17-1.49-.24-2.23-.29-.34-.02-1.68.04-1.87-.08l.03-.07c.4-.27,1.05-.32,1.52-.35Z"/>
      <path class="st2" d="M195.59,74.71l.1.05s.02-.06.03-.09c.04-.1.05-.14.15-.19l.2.09c.92.78.79,2.11,1.01,3.19.08.4.28.84.29,1.24,0,.05,0,.1-.02.15l-.06.03c-.39-.19-1.04-1.37-1.18-1.77-.22-.66-.51-2.02-.53-2.71Z"/>
      <path class="st2" d="M237.46,85.94c.08,0,.07,0,.12.05,0,.03,0,.06,0,.09-.02.19-.16.42-.25.59-.15.32-.32.66-.53.94-.72.93-2.22,1.94-3.2,2.63l-.06-.02-.03-.08c.11-.28.36-.48.51-.74.2-.36.33-.88.6-1.18.28-.31,1.12-.82,1.5-1.13.45-.37.86-.82,1.34-1.15Z"/>
      <path class="st2" d="M224.73,46.28c.4-.03.79-.04,1.19.01,1,.15,2.53.79,3.49,1.21.14.06.27.1.33.25-.22.08-.56.04-.8.04-.46.02-.98.09-1.43.03-.57-.08-1.2-.45-1.75-.65-.65-.24-1.32-.44-1.98-.64.31-.11.62-.19.94-.24Z"/>
      <path class="st2" d="M199.15,80.69c.23,0,.48.11.71.16.4.08.78.12,1.19.15.2.7.59,1.44.91,2.1.12.25.33.57.39.83.02.08,0,.09-.05.16-.03.01-.05.02-.08.03-.29.1-.78.22-1.07.07-.32-.16-1.84-3.05-1.99-3.5Z"/>
      <path class="st2" d="M217.37,46.78c.13,0,.25,0,.38,0,.53,0,2.83-.04,3.12.24-.05.17-.37.39-.5.54-.2.25-.38.51-.55.79-.08.05-.15.07-.24.07-.31-.01-.64-.07-.95-.11-.75-.09-1.52-.19-2.27-.23.11-.34.17-.86.43-1.12.17-.17.36-.16.58-.17Z"/>
      <path class="st2" d="M240.14,78.64c.07,0,.14,0,.2.04.23.13.51.58.57.83.13.55-1.6,2.82-2.01,3.43-.07.05-.08.05-.16.06-.2-.22-.49-1.39-.59-1.74.25-.41.62-.77.92-1.14.38-.47.73-.98,1.08-1.47Z"/>
      <path class="st2" d="M202,85.49c.38,0,1-.09,1.33.11.31.18,1.25,1.5,1.61,1.88,1.16,1.22,2.47,2.2,3.93,3.03-.08.11-.08.11-.22.13-.13.02-.28,0-.41,0-.33-.05-.77-.37-1.06-.54-2.36-1.35-3.46-2.58-5.17-4.6Z"/>
      <path class="st2" d="M197.76,75.58c.29.1.57.26.86.38.42.17.85.3,1.27.45.12.33.6,2.7.57,3-.66.06-1.25-.02-1.89-.18-.36-.9-.75-2.7-.81-3.65Z"/>
      <path class="st2" d="M214.96,46.99c.09-.01.14-.02.22.02.06.28-.34.88-.48,1.12-.7.17-1.46.14-2.17.28-2.85.55-5.38,1.82-7.38,3.95l-.1.1-.06-.02c.03-.1.07-.16.12-.24.3-.43.65-.77,1.03-1.13,1.71-1.62,3.86-2.82,6.11-3.5.89-.27,1.79-.4,2.7-.57Z"/>
      <path class="st2" d="M236.88,82.51c.09.01.15.03.21.09.29.3.6,1.09.57,1.52-.04.53-1.89,1.96-2.39,2.37l-.43.3c-.02-.83-.13-1.6-.23-2.42.78-.6,1.56-1.19,2.28-1.86Z"/>
      <path class="st2" d="M222.47,47.2c.85.03,2.81.76,3.62,1.11-.44.44-1.06.75-1.54,1.23-.09.11-.21.2-.31.3-.98-.31-1.91-.74-2.91-1,.21-.59.64-1.27,1.14-1.64Z"/>
      <path class="st2" d="M242.22,66.39c.09.03.13.03.19.1.31.34.37.87.46,1.3.3,1.45.45,2.86.37,4.35-.09,1.8-.51,3.35-1.11,5.03-.11.3-.25.83-.49,1.05l-.17-.02s-.05-.04-.08-.07l-.03-.03c-.18-.17-.27-.65-.39-.9.27-.69.62-1.36.88-2.06.1-.26.18-.51.26-.78.08-.26.15-.52.22-.79.06-.27.12-.53.17-.8.05-.27.09-.54.12-.81.03-.27.06-.54.07-.82.02-.27.03-.55.03-.82,0-.27,0-.55-.02-.82-.02-.27-.04-.54-.07-.82-.1-.78-.28-1.55-.43-2.32Z"/>
      <path class="st2" d="M196.42,65.73s.02.01.02.02c.07.09.6,2.37.6,2.54.01.84-.23,1.81-.31,2.66-.09.92-.06,1.85-.08,2.77l-.27-.33c-.41-.56-.8-1.3-.93-1.98-.19-1.05.38-4.84.96-5.69Z"/>
      <path class="st2" d="M232.87,89.26l.11.03s0,.02,0,.03c0,.23-.63,1.1-.79,1.31-.23.31-.49.61-.81.83-.28.2-.64.34-.95.48-1.36.61-2.71,1-4.18,1.2l-.1-.05v-.08c.22-.22.48-.35.71-.54.41-.35.77-.86,1.23-1.13.46-.27,1.06-.34,1.56-.54,1.12-.44,2.18-.95,3.23-1.53Z"/>
      <path class="st2" d="M229.21,48.59c.53-.06,1.09-.04,1.61.02.35.04.73.1,1.05.26,1.02.5,3.39,2.52,4.09,3.41.1.13.11.17.09.33-.39-.14-.77-.28-1.17-.39-.36-.1-.78-.16-1.11-.32-.48-.22-.92-.64-1.33-.97-.44-.34-.9-.67-1.36-.99-.39-.27-1.64-.99-1.87-1.25v-.1Z"/>
      <path class="st2" d="M197.98,69.16c.19.1.38.29.56.43.5.4.93.65,1.54.86-.09.74-.19,1.47-.23,2.21-.04.63.02,1.35-.11,1.96-.76-.05-1.52-.27-2.14-.72-.09-.75.09-4.09.38-4.74Z"/>
      <path class="st2" d="M232.96,85.44l.14.02c.06.06.09.11.12.19.16.43.47,1.55.25,1.96-.23.43-3.35,1.63-3.92,1.79-.11.04-.23.08-.34.12-.12-.15,0-.43.05-.6.15-.6.06-1.28.04-1.9,1.32-.37,2.46-.94,3.67-1.58Z"/>
      <path class="st2" d="M227.44,49.11c.05,0,.11,0,.16.02.57.14,3.45,2.13,3.77,2.68-.05.16-1.06.44-1.25.54-.2.1-.38.26-.55.4l-.29.26c-.43-.32-.83-.67-1.26-.99-.69-.5-1.41-.96-2.16-1.37.29-.7.92-1.21,1.59-1.53Z"/>
      <path class="st2" d="M222.41,90.03c-.47.14-.95.25-1.44.33-.58.09-1.21.14-1.77.32-.46.15-.72.61-1.21.66-.73.09-1.07-.6-1.67-.84-.34-.14-.73-.19-1.09-.26-.49-.11-.98-.23-1.45-.4-.67-.23-1.37-.47-2.01-.79-.47-.23-.93-.53-1.41-.73-.86-.35-1.77.17-2.57-.47-.9-.72-.48-1.52-.89-2.4-.23-.5-.68-.93-1-1.37-.51-.72-.96-1.48-1.34-2.27-.38-.8-.73-1.64-.97-2.49-.16-.55-.22-1.21-.47-1.73-.4-.81-1.13-.84-1.26-1.94-.14-1.28.68-1.57,1.09-2.61.21-.54.29-1.14.42-1.71.16-.76.37-1.49.64-2.22.29-.75.63-1.48,1.03-2.18.26-.46.62-.93.8-1.42.12-.31.1-.64.07-.96-.08-1.03,0-1.88.69-2.71.54-.66,1.31-1.01,2.15-1.09.11,0,.21-.01.32-.01.11,0,.21,0,.32.02.11.01.21.03.32.05.11.02.21.05.31.08.1.03.2.07.3.11.1.04.19.09.29.14.09.05.18.11.27.17s.17.13.25.2c.08.07.15.14.23.21.07.07.14.15.2.23.06.08.12.16.18.25.06.09.11.18.15.27.05.09.09.19.13.28.04.1.07.19.1.29.03.1.05.2.07.3.02.1.03.2.04.31.07.9-.21,1.7-.8,2.38-.63.73-1.52,1.06-2.46,1.13-.28.02-.56,0-.84.02-.31.03-.51.2-.7.43-.74.9-2.41,4.45-2.17,5.6.16.77,1.05,1.12.91,2.31-.11.95-1.11,1.47-1,2.45.17,1.66,1.16,3.83,2.04,5.24.26.41.56.93.97,1.18.58.35,1.33.12,1.88.58.56.47.64,1.26.69,1.94.06.06.12.12.19.18,1.03.9,4.21,2.43,5.55,2.38.5-.02.88-.43,1.38-.45.45-.02.67.26.97.53.73.66,2.37.13,3.28.09,0,0,.02,0,.03,0,.09.02.18.03.26.07l-.05.02s-.09.03-.13.05c.09.05.13.04.23.03-.01.06-.03.13-.05.19Z"/>
      <path class="st2" d="M210.43,50.93c.8-.04,1.27.47,1.99.48.61,0,1.26-.18,1.87-.27.75-.12,1.55-.14,2.31-.12,1.02.04,2.03.15,3.03.34.51.1,1.03.31,1.55.32.65.02,1.2-.4,1.89-.31,1.6.2,1.43,1.39,2.26,2.29.37.4.85.73,1.27,1.08.61.51,1.17,1.07,1.7,1.66.59.66,1.15,1.39,1.63,2.14.23.36.4.76.66,1.09.56.7,1.72.6,2.54,1.68.51.67.71,1.56.59,2.39-.02.11-.04.21-.06.32-.03.11-.06.21-.09.31-.04.1-.08.2-.12.3-.05.1-.1.19-.15.29-.06.09-.12.18-.18.27-.06.09-.13.17-.21.25-.07.08-.15.16-.23.23s-.16.14-.25.21c-.68.5-1.44.69-2.28.55-.86-.14-1.65-.58-2.16-1.29-.6-.84-.79-2.17-.37-3.12.17-.39.48-.75.54-1.18.11-.83-.93-2.11-1.41-2.74-.54-.7-1.97-2.41-2.85-2.5-.53-.05-1.05.11-1.6.04h-.03c-1.1-.36-1.21-.86-1.71-1.79-.17-.32-.46-.51-.79-.61-1.76-.53-3.64-.6-5.46-.48-.48.03-1.07.03-1.49.27-.56.32-.66,1.04-1.22,1.34-.71.38-1.57.07-2.27-.16-.04.01-.08.02-.13.03-1.2.35-4.21,2.7-4.76,3.81-.24.48-.03,1.05-.3,1.53-.24.42-.69.5-1.12.61-.85.87-1.5,3.16-1.71,4.36-.12.67-.14,1.37-.38,2.02-.11-1.46.23-3.39.67-4.79.18-.58.45-1.17.56-1.76.11-.58-.28-1.19.11-1.73.33-.44.98-.5,1.39-.86.39-.35.68-.82,1.02-1.22.37-.44.81-.84,1.23-1.23.39-.36.81-.71,1.24-1.01.44-.31,1.02-.59,1.38-.99.35-.38.46-.89.75-1.32.29-.43.67-.64,1.17-.74Z"/>
      <path class="st2" d="M233.39,56.07s.05,0,.09,0c.74.1,2.88,2.35,3.4,3.01.41.51.75,1.15,1.21,1.61.32.33.86.32,1.14.73.4.57,0,1.18.07,1.78.05.48.24.97.37,1.43.18.62.32,1.24.41,1.88.1.73.12,1.46.12,2.2,0,.35-.05.77,0,1.12.14.91,1.02,1.08.77,2.34-.26,1.32-1.38,1.01-1.97,2.39-.1.25-.22.49-.33.74-.12.24-.24.48-.37.72-.13.24-.26.47-.4.7-.14.23-.29.46-.44.68-.15.22-.31.44-.47.66-.16.22-.33.43-.5.63-.17.21-.35.41-.53.61-.18.2-.37.39-.56.58-.3.3-.64.55-.95.84-.74.7-.47,1.73-1.38,2.37-.24.17-.51.34-.8.39-.69.13-1.39-.19-2.1-.08-.62.09-1.21.34-1.8.51-.89.26-1.86.42-2.78.49-.57.04-1.14.05-1.71.04-.5,0-1.46-.12-1.91,0-.37.1-.69.42-1.01.63-.66.44-1.58.53-2.34.36-.9-.19-1.55-.72-2.05-1.49-.39-.6-.5-1.43-.4-2.13.02-.1.04-.21.06-.31.03-.1.06-.2.09-.3s.07-.2.12-.29.09-.19.15-.28c.05-.09.11-.18.17-.26.06-.08.13-.17.2-.24.07-.08.14-.15.22-.22.08-.07.16-.14.24-.2.68-.51,1.56-.67,2.39-.54.88.14,1.86.72,2.31,1.51.15.27.23.6.42.85.24.31.6.4.97.45,1.22.16,4.93.09,5.83-.79.48-.48.62-1.18,1.19-1.61.57-.43,1.15-.39,1.82-.3.57.08.89.05,1.36-.31,1.18-.92,3.98-4.08,4.08-5.59.04-.64-.46-1.14-.37-1.82.11-.83.54-1.01,1.13-1.49.33-.27.36-.61.4-1,.12-1.27.05-4.39-.62-5.46-.22-.35-.68-.49-.93-.81-.35-.47-.12-.94-.06-1.44.12-.93-1.99-3.39-2.64-4.05-.4-.4-.93-.74-1.28-1.18,0,0-.01-.02-.02-.03Z"/>
    </g>
  </g>
  <g id="CMYK" class="st6">
    <rect class="st1" x="78.88" y="-73.63" width="49.74" height="49.74" rx="12.93" ry="12.93"/>
    <rect class="st3" x="18.93" y="-73.63" width="49.74" height="49.74" rx="12.93" ry="12.93"/>
  </g>
  <g id="RGB" class="st6">
    <rect class="st4" x="211.62" y="-73.63" width="49.74" height="49.74"/>
    <rect class="st5" x="152.75" y="-73.63" width="49.74" height="49.74"/>
  </g>
</svg>